HIERARCHY
ROOT Hips
{
	OFFSET -0.179506 -22.333345 2.821913
	CHANNELS 6 Xposition Yposition Zposition Zrotation Yrotation Xrotation 
	JOINT LeftUpLeg
	{
		OFFSET 6.951974 -9.140623 -0.681533
		CHANNELS 3 Zrotation Yrotation Xrotation
		JOINT LeftLeg
		{
			OFFSET 3.427654 -37.519855 -0.449580
			CHANNELS 3 Zrotation Yrotation Xrotation
			JOINT LeftFoot
			{
				OFFSET -1.359570 -39.796059 -4.369333
				CHANNELS 3 Zrotation Yrotation Xrotation
				JOINT LeftToe
				{
					OFFSET 2.635814 -5.579078 11.928840
					CHANNELS 3 Zrotation Yrotation Xrotation
					End Site
					{
						OFFSET 0.000000 0.000000 0.000000
					}
				}
			}
		}
	}
	JOINT RightUpLeg
	{
		OFFSET -6.767048 -9.052170 -0.431982
		CHANNELS 3 Zrotation Yrotation Xrotation
		JOINT RightLeg
		{
			OFFSET -3.829005 -38.256897 -0.885003
			CHANNELS 3 Zrotation Yrotation Xrotation
			JOINT RightFoot
			{
				OFFSET 1.577377 -39.841461 -4.231180
				CHANNELS 3 Zrotation Yrotation Xrotation
				JOINT RightToe
				{
					OFFSET -2.537174 -4.814398 12.334795
					CHANNELS 3 Zrotation Yrotation Xrotation
					End Site
					{
						OFFSET 0.000000 0.000000 0.000000
					}
				}
			}
		}
	}
	JOINT Spine
	{
		OFFSET -0.253288 10.896323 -2.669631
		CHANNELS 3 Zrotation Yrotation Xrotation
		JOINT Spine1
		{
			OFFSET 0.548704 13.518043 0.109247
			CHANNELS 3 Zrotation Yrotation Xrotation
			JOINT Spine2
			{
				OFFSET 0.145701 5.292222 2.542457
				CHANNELS 3 Zrotation Yrotation Xrotation
				JOINT Neck
				{
					OFFSET -0.277840 21.387037 -4.285703
					CHANNELS 3 Zrotation Yrotation Xrotation
					JOINT Head
					{
						OFFSET 0.515184 6.496960 5.134897
						CHANNELS 3 Zrotation Yrotation Xrotation
						End Site
						{
							OFFSET 0.000000 0.000000 0.000000
						}
					}
				}
				JOINT LeftShoulder
				{
					OFFSET 7.884473 12.174932 -3.408961
					CHANNELS 3 Zrotation Yrotation Xrotation
					JOINT LeftArm
					{
						OFFSET 9.097692 3.046888 -0.886815
						CHANNELS 3 Zrotation Yrotation Xrotation
						JOINT LeftForeArm
						{
							OFFSET 25.961220 -1.277207 -2.745643
							CHANNELS 3 Zrotation Yrotation Xrotation
							JOINT LeftHand
							{
								OFFSET 24.923361 0.898606 -0.117091
								CHANNELS 3 Zrotation Yrotation Xrotation
								End Site
								{
									OFFSET 0.000000 0.000000 0.000000
								}
							}
						}
					}
				}
				JOINT RightShoulder
				{
					OFFSET -8.175920 11.883285 -3.861528
					CHANNELS 3 Zrotation Yrotation Xrotation
					JOINT RightArm
					{
						OFFSET -9.601238 3.255117 -0.914307
						CHANNELS 3 Zrotation Yrotation Xrotation
						JOINT RightForeArm
						{
							OFFSET -25.374195 -1.332924 -2.140099
							CHANNELS 3 Zrotation Yrotation Xrotation
							JOINT RightHand
							{
								OFFSET -25.529810 0.777228 -0.555919
								CHANNELS 3 Zrotation Yrotation Xrotation
								End Site
								{
									OFFSET 0.000000 0.000000 0.000000
								}
							}
						}
					}
				}
			}
		}
	}
}
MOTION
Frames: 13
Frame Time: 0.033333
344.387848 323.462555 79.647202 -46.373761 5.572096 106.450527 -5.207741 -3.698607 4.282176 -16.654787 -5.540909 58.760956 -2.761513 13.534412 -4.780488 nan nan nan -2.967583 5.368720 -58.894810 10.321584 -13.264365 49.954460 -4.035126 -8.290490 -9.626701 nan nan nan 2.433918 -11.855137 12.231050 8.543723 -5.463702 -2.678963 7.177117 -5.636954 -0.365933 -11.874764 3.078360 -13.083469 8.564055 11.978386 -23.987942 -20.050504 -25.623599 9.877449 -32.459735 -25.113485 -2.423428 52.427959 -49.246804 -31.234703 22.679036 -15.187816 -3.218174 12.713584 1.404060 0.577523 39.831759 -21.187210 -23.210475 -109.268993 53.025761 -100.422027 -22.154277 13.926870 -22.030054 
342.707947 321.888123 79.421570 -47.784277 5.708876 106.331557 -5.095373 -3.459488 1.201782 -16.037770 -1.196307 64.267261 -2.176054 13.639242 -6.858241 nan nan nan -2.793406 5.731201 -58.419595 10.651776 -13.319570 52.595195 -4.482869 -6.825401 -12.431148 nan nan nan 2.533195 -11.063409 11.783451 8.533675 -5.267458 -1.230450 6.917526 -5.220519 -1.851335 -11.431230 3.270069 -13.377081 7.247806 11.821894 -22.321761 -22.586710 -23.203556 9.903059 -32.769399 -23.537143 -3.488873 62.087733 -46.890929 -38.342905 23.396350 -14.943721 0.751346 16.079363 1.507350 0.236591 37.647605 -17.173796 -24.415091 -107.888309 44.752160 -98.982708 -24.451680 13.798753 -19.250543 
341.137421 320.399353 79.192238 -48.749444 6.069784 106.304944 -4.280159 -3.760514 -2.013381 -15.759077 2.728872 69.234582 -1.224710 14.335645 -8.431146 nan nan nan -1.684755 5.956703 -57.903639 9.337919 -12.897149 55.535195 -3.689802 -5.893154 -15.732240 nan nan nan 2.842439 -10.784638 12.444372 8.777830 -4.502386 -0.670728 6.518657 -5.117659 -3.815329 -9.553517 5.426464 -14.073030 3.731009 11.429551 -21.046253 -23.293633 -19.920260 9.270880 -36.703781 -21.342497 -1.708029 91.229336 -63.266165 -36.520219 9.665652 -12.275683 49.618463 22.265483 -1.231299 4.158426 35.063826 -17.267127 -13.759683 -150.315491 68.479819 -93.450408 -6.121865 13.115266 46.546342 
339.500153 318.853424 78.921791 -50.460694 6.369524 106.163046 -3.751463 -3.757708 -5.631352 -14.242694 6.681548 74.219593 -0.216111 14.150358 -8.762597 nan nan nan -1.229537 6.607215 -56.872838 9.365002 -12.826859 57.065289 -3.301209 -4.627262 -18.390431 nan nan nan 2.927755 -9.988271 12.510318 8.823188 -4.161619 0.627121 6.192685 -4.586745 -5.249764 -8.787348 6.042976 -14.330628 2.060364 10.990844 -19.952576 -23.810854 -16.798182 8.557587 -38.836219 -19.121499 -1.238216 103.155090 -62.627033 -42.942235 8.551713 -9.365995 56.780627 24.775731 -1.215447 4.309104 33.974977 -12.083441 -12.479599 -147.019550 64.564048 -85.898747 -6.501193 11.381392 51.685649 
337.880737 317.341583 78.677040 -52.142299 6.797988 106.096784 -2.934473 -3.680198 -9.377356 -12.598153 9.990135 79.394249 0.598344 14.508100 -10.460812 nan nan nan -0.770962 7.559937 -55.823051 8.784058 -12.515252 58.704160 -4.067627 -4.395710 -20.865358 nan nan nan 3.097369 -9.316672 12.842184 8.758236 -3.582927 1.124111 5.864086 -3.978313 -6.145123 -7.950897 7.063632 -14.560472 0.390361 10.287559 -19.054537 -23.867766 -13.895041 7.751355 -40.155036 -16.322370 -2.222012 109.524596 -59.610941 -45.165315 8.975268 -8.667841 61.157285 26.825130 -0.394745 4.287252 33.761435 -6.925010 -11.695939 -146.429021 61.953693 -80.947763 -8.091115 12.296689 56.863475 
336.241028 315.813263 78.480324 -53.882634 7.232985 105.975650 -1.906305 -3.727129 -13.238970 -10.936712 12.780516 84.293407 1.530718 14.866233 -12.590684 nan nan nan -0.265271 8.480981 -54.385688 8.546318 -12.072737 59.230902 -4.308825 -3.421021 -21.355395 nan nan nan 3.131032 -8.469479 13.131203 8.780007 -3.010382 1.587083 5.496773 -3.307489 -6.812561 -7.119714 8.050394 -14.610227 -1.166414 9.363460 -18.338339 -23.484571 -10.991491 7.099665 -41.352923 -13.201045 -3.047047 113.524736 -57.847445 -46.181730 9.612952 -8.701158 63.982042 28.584435 0.884964 4.416716 33.878302 -1.343134 -10.810331 -146.523879 61.021048 -78.148511 -9.662402 13.966871 61.271253 
334.548828 314.302582 78.291672 -55.539575 7.648983 105.599456 -0.769601 -3.755106 -16.710129 -9.673875 14.892115 88.680705 2.297852 15.059115 -13.848172 nan nan nan 0.229235 9.296978 -52.365529 8.729713 -11.725073 59.388968 -4.897141 -2.864418 -23.019414 nan nan nan 3.090555 -7.535512 13.415187 8.581955 -2.564785 1.815109 5.113634 -2.668517 -6.735171 -6.563966 9.287565 -14.764364 -1.834402 8.706861 -18.332409 -22.455935 -8.541785 6.676223 -42.655741 -9.478035 -3.392139 110.579873 -56.856341 -44.294261 10.405845 -9.024665 60.311648 29.304987 2.931402 4.505349 35.640206 3.802842 -9.229646 -145.400237 60.907406 -80.090160 -11.624281 16.060509 56.479416 
332.687439 312.919525 78.147377 -57.515886 8.393289 104.864076 1.267940 -3.103244 -20.052196 -8.668609 16.620604 93.002665 2.621144 14.189086 -13.929344 nan nan nan 0.642746 10.820278 -49.617359 10.461348 -11.584523 58.134203 -4.796761 -2.616740 -23.614641 nan nan nan 2.804057 -6.151543 14.570045 8.374022 -2.006560 -1.091090 5.034054 -2.207209 -4.381047 -7.622967 8.690320 -12.914475 0.122553 9.425992 -20.067683 -20.797437 -6.885645 5.758783 -47.957340 -3.018285 5.726583 60.010390 -58.436187 -17.038788 -1.973789 -6.727480 19.744520 25.376454 6.585480 1.348079 41.799131 4.149196 1.486855 -132.580854 73.552394 -96.141148 -4.462671 14.111165 1.839133 
330.951141 311.255219 78.037819 -58.815739 8.630509 104.330312 2.776172 -3.576615 -23.537155 -7.269067 18.293746 96.942179 3.756884 13.230417 -14.139474 nan nan nan 0.820408 10.821562 -46.850445 11.055158 -11.121150 57.498431 -4.937860 -1.499106 -24.977885 nan nan nan 2.913136 -4.966123 15.362271 8.150451 -1.809122 -1.711152 4.860077 -1.644443 -4.235971 -7.480508 8.878263 -12.745066 -0.136242 8.962838 -19.894513 -19.178732 -3.606567 5.240845 -48.269890 -0.442254 3.475557 53.996792 -54.521209 -17.917211 -25.728637 1.974541 16.129825 26.276750 7.889193 1.911768 41.401867 10.111013 1.628990 -129.182132 75.627241 -98.299531 22.087672 8.129973 2.230185 
329.166504 309.516388 77.995354 -59.933223 8.343681 103.769848 3.478719 -3.750410 -27.025342 -6.938763 19.071925 100.250183 4.386038 12.553702 -15.802535 nan nan nan 0.876377 10.525475 -44.025105 11.240676 -9.722891 57.368669 -4.654706 -0.852493 -27.053182 nan nan nan 2.527506 -3.752572 15.573311 8.024690 -1.550202 -1.485996 4.563395 -0.972110 -4.231303 -7.376702 9.181160 -12.624703 -0.531387 7.854130 -19.952179 -18.039827 -0.823975 4.642357 -47.030599 2.292942 2.576938 49.848099 -53.193297 -15.433187 -20.881922 0.525618 15.555485 27.384352 9.205894 2.377403 41.108409 15.262775 1.609992 -126.123327 75.081184 -100.579738 15.190466 10.468671 0.923112 
327.218018 307.891785 78.057823 -61.528157 8.001447 103.551091 4.815265 -4.231346 -30.543432 -6.197704 20.216535 102.969777 4.696885 9.661923 -17.965968 nan nan nan 0.841266 10.535581 -41.541261 10.432972 -8.931494 57.338315 -4.346283 1.053662 -28.539961 nan nan nan 1.546693 -3.035211 14.237687 8.499335 -1.548834 2.230568 3.510594 1.037726 -6.561133 -7.028281 8.920257 -11.883325 -0.918097 7.137186 -20.574346 -15.893556 4.318356 5.721757 -50.306226 4.487876 14.464285 -159.418736 -74.583364 -154.008750 -16.712297 -4.240501 15.282073 28.244267 7.957021 4.579289 41.496184 23.859866 3.840271 -118.743858 73.301133 -96.090165 8.823369 11.324564 -2.515156 
325.304474 306.151520 78.199997 -62.573450 7.728756 102.992318 5.835020 -4.177365 -33.902985 -5.990361 20.569129 105.235772 5.193840 9.097957 -18.883529 nan nan nan 0.933410 10.066066 -38.317100 10.601558 -7.585362 56.508632 -4.222824 1.453154 -29.909317 nan nan nan 1.173115 -1.612827 14.075452 8.206640 -1.230865 2.547191 3.233781 1.865068 -6.457743 -6.852175 8.848728 -11.105905 -0.809424 6.022278 -21.068732 -15.111774 6.270045 5.529014 -47.613273 7.019094 13.876512 -155.228721 -72.258707 -159.371376 -11.487176 -7.637989 12.797868 28.689523 9.508491 5.223078 40.142442 27.571023 2.993587 -119.477206 72.318545 -100.565728 1.903711 13.891253 -4.758318 
322.998169 304.291779 78.204018 -64.008989 8.239109 100.509633 6.839065 -3.903614 -34.100971 -5.324692 19.981171 106.806398 6.002864 9.554088 -19.767201 nan nan nan 2.524589 9.949495 -32.473773 10.478458 -5.427143 55.700306 -4.542329 0.882892 -32.137432 nan nan nan 1.594923 -0.028019 15.272061 7.734309 -0.606111 2.730575 2.935724 2.879936 -5.466114 -6.097128 8.938863 -10.182419 -1.223542 4.357064 -21.518337 -13.687146 7.887948 5.547267 -45.569586 9.301036 13.856850 -147.671607 -70.990475 -166.078642 -10.498121 -7.544385 13.153917 28.187796 10.827606 5.625409 38.911154 30.977564 1.657418 -121.110126 71.150057 -103.771638 -0.457222 14.443264 -5.826198 
